<?xml version="1.0" encoding="UTF-8"?>
<svg viewBox="0 0 680 140" xmlns="http://www.w3.org/2000/svg">
  <g transform="translate(20 0)">
    <g fill="none" stroke="#f5f5f7" stroke-width="6" stroke-linecap="round">
      <path d="M30 70 A40 40 0 0 1 110 70"/>
      <path d="M36 70 A34 34 0 0 1 104 70"/>
      <path d="M42 70 A28 28 0 0 1 98 70"/>
      <path d="M48 70 A22 22 0 0 1 92 70"/>
    </g>
    <circle cx="70" cy="70" r="12" fill="#7fc3d8"/>
    <g stroke="#f5f5f7" stroke-width="6" stroke-linecap="round" fill="none">
      <path d="M70 18 L70 40"/>
      <path d="M70 100 L70 122"/>
      <path d="M60 80 L80 80"/>
    </g>
  </g>
  <text x="190" y="84" fill="#f5f5f7" font-family="Space Grotesk, 'Segoe UI', 'Helvetica Neue', sans-serif" font-size="64" font-weight="600">
    <tspan letter-spacing="0.6">Silent</tspan>
    <tspan dx="8" letter-spacing="1.8">Apply</tspan>
  </text>
  <text x="550" y="84" fill="#7fc3d8" font-family="Space Grotesk, 'Segoe UI', 'Helvetica Neue', sans-serif" font-size="52" font-weight="700" letter-spacing="1.6">
    AI
  </text>
  <path d="M550 100 L620 100" stroke="#7fc3d8" stroke-width="4" stroke-linecap="round" />
</svg>
